<?xml version="1.0" encoding="utf-8"?>
<!-- Generator: Adobe Illustrator 25.1.0, SVG Export Plug-In . SVG Version: 6.00 Build 0)  -->
<svg version="1.1" id="Layer_1" xmlns="http://www.w3.org/2000/svg" xmlns:xlink="http://www.w3.org/1999/xlink" x="0px" y="0px"
	 viewBox="0 0 60 15.33" style="enable-background:new 0 0 60 15.33;" xml:space="preserve">
<style type="text/css">
	.st0{fill:#1A1A1A;}
</style>
<g>
	<g>
		<g>
			<g>
				<path class="st0" d="M21.61,6.79"/>
				<polyline class="st0" points="21.9,7.21 22.05,7.43 21.56,7.43 21.37,7.13 21.81,7.18 				"/>
				<g>
					<rect x="26.19" y="7.03" class="st0" width="3.14" height="0.4"/>
					<rect x="26.19" y="4.63" class="st0" width="2.6" height="0.4"/>
					<rect x="26.19" y="2.64" class="st0" width="3.14" height="0.4"/>
					<rect x="26.19" y="2.64" class="st0" width="0.43" height="4.79"/>
				</g>
				<g>
					<polyline class="st0" points="18.76,3.05 18.76,2.64 19.19,2.64 18.95,3.08 18.9,3.19 					"/>
					<rect x="18.76" y="2.68" class="st0" width="0.41" height="4.75"/>
					<path class="st0" d="M21.92,7.24l-1.1-1.77c0.29-0.1,0.51-0.24,0.68-0.45c0.2-0.24,0.3-0.55,0.3-0.92
						c0-0.46-0.16-0.82-0.47-1.09c-0.31-0.26-0.73-0.39-1.27-0.39h-1.19c-0.03,0-0.06,0.01-0.08,0.03V7.4
						c0.02,0.02,0.05,0.03,0.08,0.03h0.18c0.06,0,0.12-0.05,0.12-0.12V5.6h0.89c0.07,0,0.15,0,0.22-0.01l0.02,0
						c0.03,0,0.06-0.01,0.09-0.01l1.12,1.79c0.02,0.03,0.06,0.05,0.1,0.05h0.21c0.04,0,0.08-0.02,0.1-0.06
						C21.95,7.32,21.95,7.28,21.92,7.24z M20.07,5.2C20.07,5.2,20.07,5.2,20.07,5.2c-0.03,0-0.06,0-0.09,0c-0.7,0-0.83,0-0.83,0
						V5.19h0V3.03h0.88c0.43,0,0.76,0.09,1,0.28c0.24,0.18,0.35,0.44,0.35,0.81c0,0.34-0.11,0.6-0.33,0.79
						c-0.03,0.03-0.07,0.05-0.1,0.08l0,0c0,0-0.03,0.02-0.1,0.06C20.65,5.14,20.39,5.2,20.07,5.2z"/>
				</g>
				<g>
					<path class="st0" d="M35.19,7.43h-1.64V2.64h1.64c0.37,0,0.73,0.06,1.07,0.18c0.33,0.12,0.63,0.29,0.88,0.51
						c0.26,0.22,0.46,0.48,0.6,0.76c0.15,0.3,0.22,0.62,0.22,0.94s-0.08,0.65-0.22,0.94c-0.14,0.29-0.35,0.54-0.6,0.76
						c-0.26,0.22-0.55,0.39-0.88,0.51C35.92,7.37,35.56,7.43,35.19,7.43z M33.95,7.02h1.24c1.31,0,2.38-0.89,2.38-1.99
						s-1.07-1.99-2.38-1.99h-1.24V7.02z"/>
				</g>
			</g>
			<g>
				<g>
					<path class="st0" d="M22.29,10.47H22.1c-0.05,0-0.09,0.03-0.11,0.07l-0.47,1.03l-0.28,0.62c0,0.01,0,0.01-0.01,0.02l-0.99,2.18
						l-0.08,0.18c-0.01,0.02-0.02,0.04-0.03,0.06c-0.01-0.02-0.02-0.04-0.03-0.07l-1.07-2.35c0-0.01,0-0.01-0.01-0.02l-0.75-1.66
						c-0.02-0.04-0.06-0.07-0.11-0.07H18c-0.04,0-0.08,0.02-0.1,0.05c-0.02,0.03-0.02,0.08-0.01,0.11l2.08,4.54
						c0.02,0.04,0.06,0.07,0.11,0.07h0.14c0.05,0,0.09-0.03,0.11-0.07l2.08-4.54c0.02-0.04,0.01-0.08-0.01-0.11
						C22.37,10.49,22.33,10.47,22.29,10.47z"/>
					<polygon class="st0" points="18.5,10.99 18.27,10.47 17.82,10.47 18.52,12.01 					"/>
					<polygon class="st0" points="21.79,10.99 22.03,10.47 22.48,10.47 21.77,12.01 					"/>
					<polyline class="st0" points="19.68,14.55 20,15.25 20.29,15.25 20.38,15.05 19.95,15.05 					"/>
				</g>
				<g>
					<path class="st0" d="M25.62,15.25h0.19c0.05,0,0.09-0.03,0.11-0.07l0.47-1.03l0.28-0.62c0-0.01,0-0.01,0.01-0.02l0.99-2.18
						l0.08-0.18c0.01-0.02,0.02-0.04,0.03-0.06c0.01,0.02,0.02,0.04,0.03,0.07l1.07,2.35c0,0.01,0,0.01,0.01,0.02l0.75,1.66
						c0.02,0.04,0.06,0.07,0.11,0.07h0.19c0.04,0,0.08-0.02,0.1-0.05c0.02-0.03,0.02-0.08,0.01-0.11l-2.08-4.54
						c-0.02-0.04-0.06-0.07-0.11-0.07h-0.14c-0.05,0-0.09,0.03-0.11,0.07l-2.08,4.54c-0.02,0.04-0.01,0.08,0.01,0.11
						C25.54,15.23,25.58,15.25,25.62,15.25z"/>
					<polygon class="st0" points="29.41,14.74 29.64,15.25 30.09,15.25 29.39,13.72 					"/>
					<polygon class="st0" points="26.11,14.74 25.88,15.25 25.43,15.25 26.14,13.72 					"/>
					<polyline class="st0" points="28.22,11.17 27.91,10.47 27.62,10.47 27.53,10.67 27.96,10.67 					"/>
				</g>
				<polygon class="st0" points="34.44,14.85 34.44,10.47 34.04,10.47 34.04,14.85 34.04,15.25 34.44,15.25 37.07,15.25 
					37.07,14.85 				"/>
				<polygon class="st0" points="41.37,14.85 41.37,10.47 40.96,10.47 40.96,14.85 40.96,15.25 41.37,15.25 43.99,15.25 
					43.99,14.85 				"/>
				<g>
					<rect x="48.51" y="14.85" class="st0" width="3.14" height="0.4"/>
					<rect x="48.51" y="12.46" class="st0" width="2.6" height="0.4"/>
					<rect x="48.51" y="10.47" class="st0" width="3.14" height="0.4"/>
					<rect x="48.51" y="10.47" class="st0" width="0.43" height="4.78"/>
				</g>
				<g>
					<path class="st0" d="M59.86,10.54c-0.02-0.04-0.06-0.07-0.11-0.07h-0.21c-0.04,0-0.07,0.02-0.09,0.04l-1.36,1.68
						c-0.02,0.03-0.05,0.06-0.08,0.1c-0.03,0.04-0.06,0.08-0.09,0.12l-0.02,0.02c-0.01,0.01-0.02,0.02-0.02,0.03
						c-0.01-0.01-0.01-0.01-0.02-0.02l-0.02-0.02c-0.03-0.04-0.06-0.07-0.09-0.12c-0.03-0.04-0.06-0.07-0.08-0.1l-1.36-1.68
						c-0.02-0.03-0.06-0.04-0.09-0.04H56c-0.05,0-0.09,0.03-0.11,0.07c-0.02,0.04-0.01,0.09,0.01,0.12l1.75,2.14v2.44h0.41v-2.44
						l1.77-2.15C59.87,10.63,59.88,10.58,59.86,10.54z"/>
					<polygon class="st0" points="56.47,10.72 56.27,10.47 55.75,10.47 57.47,12.58 					"/>
					<polygon class="st0" points="59.28,10.72 59.48,10.47 60,10.47 58.26,12.58 					"/>
				</g>
			</g>
		</g>
	</g>
	<path class="st0" d="M16.06,15.33h0.68L9.2,0L5.9,6.85L4.07,3.2L0,11.52h0.62l3.46-7.07L5.6,7.48l-3.78,7.84h11l-4.5-9.38L6.9,8.85
		L6.21,7.48L9.2,1.27L16.06,15.33z M6.91,10.1l1.41-2.88l3.62,7.55H2.7l3.21-6.66L6.91,10.1z"/>
</g>
</svg>
